<?xml version="1.0" encoding="UTF-8" standalone="no"?>
<!DOCTYPE svg PUBLIC "-//W3C//DTD SVG 1.1//EN" "http://www.w3.org/Graphics/SVG/1.1/DTD/svg11.dtd">
<svg width="100%" height="100%" viewBox="0 0 280 280" version="1.1" xmlns="http://www.w3.org/2000/svg" xmlns:xlink="http://www.w3.org/1999/xlink" xml:space="preserve" xmlns:serif="http://www.serif.com/" style="fill-rule:evenodd;clip-rule:evenodd;stroke-linejoin:round;stroke-miterlimit:2;">
    <g transform="matrix(0.999753,0,0,1.09446,0.238734,-0.570927)">
        <path d="M273.829,48.153L273.829,208.805C273.829,232.046 253.173,250.914 227.731,250.914L51.86,250.914C26.418,250.914 5.763,232.046 5.763,208.805L5.763,48.153C5.763,24.912 26.418,6.044 51.86,6.044L227.731,6.044C253.173,6.044 273.829,24.912 273.829,48.153Z" style="fill:url(#_Linear1);"/>
    </g>
    <g transform="matrix(0.1,0,0,-0.1,-0.333632,268.144)">
        <path d="M885,1866C1005,1893 1273,1861 1320,1814C1339,1796 1327,1784 1201,1699C1109,1637 1105,1636 1034,1633C925,1629 858,1600 784,1526C709,1451 685,1391 686,1280C686,1221 691,1193 712,1148C746,1076 815,1006 888,972C939,948 957,945 1052,945C1121,945 1163,949 1171,957C1180,966 1169,1009 1125,1141C1073,1299 1068,1320 1072,1381C1078,1456 1111,1528 1164,1578C1197,1610 1339,1710 1351,1710C1366,1710 1450,1473 1450,1431C1450,1418 1431,1405 1385,1385C1316,1356 1300,1339 1300,1294C1300,1279 1334,1163 1376,1036L1452,806L1428,785C1414,773 1358,749 1304,730C1220,702 1186,697 1083,692C946,687 868,698 776,737C608,807 490,936 437,1105C409,1196 407,1366 434,1455C496,1666 663,1817 885,1866ZM1635,1866C1680,1875 1741,1878 1809,1875C2041,1864 2222,1754 2323,1563C2375,1464 2393,1384 2393,1265C2393,1094 2337,966 2214,850C2065,711 1863,659 1665,710C1527,745 1527,766 1660,866C1751,935 1758,938 1821,942C1936,951 2042,1026 2097,1138C2121,1187 2125,1208 2125,1280C2125,1351 2121,1374 2099,1421C2063,1498 2008,1556 1936,1593C1880,1622 1867,1625 1778,1625C1722,1625 1677,1620 1670,1614C1663,1607 1677,1555 1719,1432C1791,1227 1798,1184 1776,1105C1755,1036 1700,973 1611,918C1563,888 1550,883 1541,894C1526,911 1450,1138 1450,1163C1450,1175 1463,1186 1488,1196C1586,1235 1601,1244 1607,1268C1611,1284 1586,1370 1530,1535C1485,1669 1450,1786 1452,1796C1456,1816 1532,1845 1635,1866Z" style="fill:white;"/>
    </g>
    <defs>
        <linearGradient id="_Linear1" x1="0" y1="0" x2="1" y2="0" gradientUnits="userSpaceOnUse" gradientTransform="matrix(268.066,0,0,244.87,5.76269,128.479)"><stop offset="0" style="stop-color:rgb(0,130,201);stop-opacity:1"/><stop offset="1" style="stop-color:rgb(28,175,255);stop-opacity:1"/></linearGradient>
    </defs>
</svg>
