<svg xmlns="http://www.w3.org/2000/svg" width="24" height="24" viewBox="0 0 24 24" fill="none">
  <defs>
    <linearGradient id="paypal-blue" x1="4" y1="4" x2="18" y2="20" gradientUnits="userSpaceOnUse">
      <stop offset="0" stop-color="#003087"/>
      <stop offset="1" stop-color="#0070ba"/>
    </linearGradient>
  </defs>
  <path d="M8.2 3.5h7.4c2.4 0 4 1.4 3.6 3.9-.5 2.8-2.1 4.1-4.6 4.4h-.2c-.4 0-.6.3-.7.7l-.5 3.4c-.1.5-.4.7-.9.7H8.6c-.5 0-.7-.2-.6-.7l1.3-9.1c.1-.5.3-.7.9-.7Z" fill="url(#paypal-blue)"/>
  <path d="M17.5 5.3c.5 0 .9.1 1.3.3.8.4 1.2 1.2 1 2.4-.4 2.6-1.9 4.1-4.2 4.5-.4.1-.6.3-.7.7l-.5 3.3c0 .5-.4.7-.8.7H8.9c-.5 0-.8-.2-.7-.7l.3-1.9c.1-.5.4-.7.9-.7h2.1c.4 0 .6-.2.7-.7l.2-1.4c.1-.4.3-.7.7-.7h.3c2.5-.3 4-1.6 4.4-4.2.1-.1.1-.3.1-.4Z" fill="#0070ba" opacity=".9"/>
</svg>
