<?xml version="1.0" encoding="UTF-8" standalone="no"?>
<!DOCTYPE svg PUBLIC "-//W3C//DTD SVG 1.1//EN" "http://www.w3.org/Graphics/SVG/1.1/DTD/svg11.dtd">
<svg width="100%" height="100%" viewBox="0 0 2048 600" version="1.1" xmlns="http://www.w3.org/2000/svg" xmlns:xlink="http://www.w3.org/1999/xlink" xml:space="preserve" xmlns:serif="http://www.serif.com/" style="fill-rule:evenodd;clip-rule:evenodd;stroke-linejoin:round;stroke-miterlimit:2;">
    <g transform="matrix(6.1513,0,0,3.82667,-504.818,-170.767)">
        <rect x="82.067" y="44.625" width="332.938" height="156.794" style="fill:rgb(0,130,201);"/>
    </g>
    <g transform="matrix(1.64228,0,0,1.64228,87.1545,65.1545)">
        <g id="Subline" transform="matrix(1,0,0,1,-21,1)">
            <path d="M362.649,199.024L355.93,199.024L355.93,196.186C355.93,193.373 357.18,191.863 360.071,191.863C361.373,191.863 362.102,192.149 362.597,192.306L363.899,188.295C363.196,187.983 361.737,187.514 359.524,187.514C355.279,187.514 351.243,190.092 351.243,195.144L351.243,199.024L345.514,199.024L345.514,203.035L351.243,203.035L351.243,228.139L355.93,228.139L355.93,203.035L362.649,203.035L362.649,199.024Z" style="fill:white;fill-rule:nonzero;"/>
            <path d="M379.133,228.764C387.076,228.764 392.441,222.748 392.441,213.764C392.441,204.649 387.076,198.66 379.133,198.66C371.217,198.66 365.878,204.649 365.878,213.764C365.878,222.748 371.217,228.764 379.133,228.764ZM379.133,224.571C373.326,224.571 370.644,219.493 370.644,213.764C370.644,207.957 373.326,202.852 379.133,202.852C385.019,202.852 387.701,207.983 387.701,213.764C387.701,219.493 385.019,224.571 379.133,224.571Z" style="fill:white;fill-rule:nonzero;"/>
            <path d="M399.264,228.139L403.951,228.139L403.951,209.91C403.951,205.977 407.024,203.139 411.217,203.139C412.467,203.139 413.743,203.347 414.029,203.399L414.029,198.686C413.482,198.66 412.336,198.608 411.659,198.608C408.196,198.608 405.175,200.561 404.107,203.503L403.795,203.503L403.795,199.024L399.264,199.024L399.264,228.139Z" style="fill:white;fill-rule:nonzero;"/>
            <path d="M432.779,193.712L444.993,193.712L444.993,228.139L449.941,228.139L449.941,193.712L462.102,193.712L462.102,189.337L432.779,189.337L432.779,193.712Z" style="fill:white;fill-rule:nonzero;"/>
            <path d="M473.456,210.691C473.456,205.717 476.607,202.878 480.8,202.878C484.862,202.878 487.362,205.561 487.362,210.04L487.362,228.139L492.076,228.139L492.076,209.649C492.076,202.279 488.092,198.66 482.206,198.66C478.404,198.66 475.357,200.196 473.456,204.076L473.456,189.337L468.769,189.337L468.769,228.139L473.456,228.139L473.456,210.691Z" style="fill:white;fill-rule:nonzero;"/>
            <path d="M510.175,228.503C514.003,228.503 517.18,226.941 519.081,222.696L519.081,228.139L523.612,228.139L523.612,199.024L518.899,199.024L518.899,216.472C518.899,221.446 515.748,224.285 511.581,224.285C507.519,224.285 504.993,221.602 504.993,217.123L504.993,199.024L500.305,199.024L500.305,217.514C500.305,224.884 504.29,228.503 510.175,228.503Z" style="fill:white;fill-rule:nonzero;"/>
            <path d="M536.529,210.691C536.529,205.717 539.68,202.878 543.873,202.878C547.935,202.878 550.435,205.561 550.435,210.04L550.435,228.139L555.123,228.139L555.123,209.649C555.123,202.279 551.165,198.66 545.279,198.66C541.373,198.66 538.248,200.3 536.373,204.415L536.347,199.024L531.842,199.024L531.842,228.139L536.529,228.139L536.529,210.691Z" style="fill:white;fill-rule:nonzero;"/>
            <path d="M574.264,228.764C579.81,228.764 581.764,225.248 582.727,223.634L583.248,223.634L583.248,228.139L587.779,228.139L587.779,189.337L583.092,189.337L583.092,203.686L582.727,203.686C581.764,202.149 579.967,198.66 574.29,198.66C567.024,198.66 561.946,204.441 561.946,213.66C561.946,222.931 566.998,228.764 574.264,228.764ZM574.967,224.571C569.524,224.571 566.711,219.727 566.711,213.608C566.711,207.566 569.446,202.852 574.967,202.852C580.331,202.852 583.144,207.175 583.144,213.608C583.144,220.092 580.253,224.571 574.967,224.571Z" style="fill:white;fill-rule:nonzero;"/>
            <path d="M608.248,228.764C614.211,228.764 618.56,225.769 619.915,221.368L615.383,220.118C614.29,223.087 611.711,224.597 608.274,224.597C603.118,224.597 599.576,221.264 599.342,215.17L620.383,215.17L620.383,213.217C620.383,202.462 613.873,198.66 607.701,198.66C599.758,198.66 594.602,204.884 594.602,213.816C594.602,222.774 599.81,228.764 608.248,228.764ZM599.368,211.212C599.654,206.759 602.701,202.826 607.701,202.826C612.493,202.826 615.175,206.264 615.618,211.212L599.368,211.212Z" style="fill:white;fill-rule:nonzero;"/>
            <path d="M627.102,228.139L631.79,228.139L631.79,209.91C631.79,205.977 634.862,203.139 639.055,203.139C640.305,203.139 641.581,203.347 641.868,203.399L641.868,198.686C641.321,198.66 640.175,198.608 639.498,198.608C636.034,198.608 633.014,200.561 631.946,203.503L631.633,203.503L631.633,199.024L627.102,199.024L627.102,228.139Z" style="fill:white;fill-rule:nonzero;"/>
            <path d="M661.529,228.764C668.795,228.764 673.847,222.931 673.847,213.66C673.847,204.441 668.769,198.66 661.503,198.66C655.826,198.66 654.029,202.149 653.066,203.686L652.701,203.686L652.701,189.337L648.014,189.337L648.014,228.139L652.545,228.139L652.545,223.634L653.066,223.634C654.029,225.248 655.982,228.764 661.529,228.764ZM660.826,224.571C655.54,224.571 652.649,220.092 652.649,213.608C652.649,207.175 655.461,202.852 660.826,202.852C666.347,202.852 669.081,207.566 669.081,213.608C669.081,219.727 666.269,224.571 660.826,224.571Z" style="fill:white;fill-rule:nonzero;"/>
            <path d="M680.67,228.139L685.357,228.139L685.357,199.024L680.67,199.024L680.67,228.139ZM683.04,194.259C684.836,194.259 686.321,192.878 686.321,191.16C686.321,189.441 684.836,188.061 683.04,188.061C681.269,188.061 679.784,189.441 679.784,191.16C679.784,192.878 681.269,194.259 683.04,194.259Z" style="fill:white;fill-rule:nonzero;"/>
            <path d="M693.586,228.139L698.274,228.139L698.274,209.91C698.274,205.977 701.347,203.139 705.54,203.139C706.79,203.139 708.066,203.347 708.352,203.399L708.352,198.686C707.805,198.66 706.659,198.608 705.982,198.608C702.519,198.608 699.498,200.561 698.43,203.503L698.118,203.503L698.118,199.024L693.586,199.024L693.586,228.139Z" style="fill:white;fill-rule:nonzero;"/>
            <path d="M723.691,228.764C729.237,228.764 731.191,225.248 732.154,223.634L732.675,223.634L732.675,228.139L737.206,228.139L737.206,189.337L732.519,189.337L732.519,203.686L732.154,203.686C731.191,202.149 729.394,198.66 723.717,198.66C716.451,198.66 711.373,204.441 711.373,213.66C711.373,222.931 716.425,228.764 723.691,228.764ZM724.394,224.571C718.951,224.571 716.139,219.727 716.139,213.608C716.139,207.566 718.873,202.852 724.394,202.852C729.758,202.852 732.571,207.175 732.571,213.608C732.571,220.092 729.68,224.571 724.394,224.571Z" style="fill:white;fill-rule:nonzero;"/>
        </g>
        <g id="Headline" transform="matrix(1,0,0,1,-20,-15.1604)">
            <path d="M344.212,162.32L355.155,162.32L355.155,113.622C355.155,109.497 354.754,100.961 354.295,90.018C360.941,101.878 364.207,107.607 368.103,113.737L399.04,162.32L411.988,162.32L411.988,76.956L401.103,76.956L401.103,129.32C401.103,133.904 401.16,141.18 401.848,149.43C397.952,141.695 394.056,135.164 391.764,131.555L357.045,76.956L344.212,76.956L344.212,162.32Z" style="fill:white;fill-rule:nonzero;"/>
            <path d="M467.16,163.466C484.634,163.466 498.613,152.81 501.592,135.451L490.707,135.451C488.301,147.081 478.332,153.383 467.16,153.383C451.863,153.383 439.889,141.523 439.889,119.695C439.889,97.81 451.806,85.893 467.16,85.893C478.275,85.893 488.301,92.138 490.707,103.826L501.592,103.826C498.556,86.237 484.462,75.81 467.16,75.81C445.275,75.81 429.29,92.596 429.29,119.695C429.29,146.737 445.275,163.466 467.16,163.466Z" style="fill:white;fill-rule:nonzero;"/>
            <path d="M585.868,163.466C603.342,163.466 617.322,152.81 620.301,135.451L609.415,135.451C607.009,147.081 597.04,153.383 585.868,153.383C570.572,153.383 558.598,141.523 558.598,119.695C558.598,97.81 570.514,85.893 585.868,85.893C596.983,85.893 607.009,92.138 609.415,103.826L620.301,103.826C617.264,86.237 603.17,75.81 585.868,75.81C563.983,75.81 547.999,92.596 547.999,119.695C547.999,146.737 563.983,163.466 585.868,163.466Z" style="fill:white;fill-rule:nonzero;"/>
            <path d="M661.837,163.695C679.311,163.695 691.113,150.461 691.113,130.695C691.113,110.643 679.311,97.466 661.837,97.466C644.42,97.466 632.676,110.643 632.676,130.695C632.676,150.461 644.42,163.695 661.837,163.695ZM661.837,154.471C649.061,154.471 643.16,143.299 643.16,130.695C643.16,117.919 649.061,106.69 661.837,106.69C674.785,106.69 680.686,117.977 680.686,130.695C680.686,143.299 674.785,154.471 661.837,154.471Z" style="fill:white;fill-rule:nonzero;"/>
            <path d="M716.436,123.935C716.436,112.992 723.368,106.747 732.592,106.747C741.53,106.747 747.03,112.648 747.03,122.503L747.03,162.32L757.342,162.32L757.342,121.643C757.342,105.43 748.634,97.466 735.686,97.466C727.092,97.466 720.217,101.076 716.092,110.128L716.035,98.268L706.124,98.268L706.124,162.32L716.436,162.32L716.436,123.935Z" style="fill:white;fill-rule:nonzero;"/>
            <path d="M785.759,123.935C785.759,112.992 792.691,106.747 801.915,106.747C810.853,106.747 816.353,112.648 816.353,122.503L816.353,162.32L826.665,162.32L826.665,121.643C826.665,105.43 817.957,97.466 805.009,97.466C796.415,97.466 789.54,101.076 785.415,110.128L785.358,98.268L775.447,98.268L775.447,162.32L785.759,162.32L785.759,123.935Z" style="fill:white;fill-rule:nonzero;"/>
            <path d="M871.697,163.695C884.816,163.695 894.384,157.107 897.363,147.424L887.394,144.674C884.988,151.206 879.316,154.529 871.754,154.529C860.41,154.529 852.618,147.195 852.103,133.789L898.394,133.789L898.394,129.492C898.394,105.831 884.072,97.466 870.493,97.466C853.019,97.466 841.676,111.159 841.676,130.81C841.676,150.518 853.134,163.695 871.697,163.695ZM852.16,125.081C852.79,115.284 859.493,106.633 870.493,106.633C881.035,106.633 886.936,114.195 887.91,125.081L852.16,125.081Z" style="fill:white;fill-rule:nonzero;"/>
            <path d="M939.243,163.695C951.79,163.695 961.988,156.878 965.426,145.477L955.572,142.669C953.681,149.602 947.837,154.471 939.243,154.471C926.467,154.471 920.566,143.299 920.566,130.695C920.566,117.919 926.467,106.69 939.243,106.69C947.665,106.69 953.394,111.388 955.285,117.977L965.197,115.169C961.702,103.997 951.618,97.466 939.243,97.466C921.827,97.466 910.082,110.643 910.082,130.695C910.082,150.461 921.827,163.695 939.243,163.695Z" style="fill:white;fill-rule:nonzero;"/>
            <path d="M1005.42,98.268L992.238,98.268L992.238,83.029L981.926,83.029L981.926,98.268L972.301,98.268L972.301,107.091L981.926,107.091L981.926,146.508C981.926,156.992 988.457,163.122 999.514,163.122C1002.15,163.122 1005.07,162.721 1007.19,161.977L1005.07,153.268C1003.35,153.612 1001.12,153.956 999.801,153.956C994.358,153.956 992.238,151.435 992.238,145.706L992.238,107.091L1005.42,107.091L1005.42,98.268Z" style="fill:white;fill-rule:nonzero;"/>
            <path d="M1043.51,163.695C1060.99,163.695 1072.79,150.461 1072.79,130.695C1072.79,110.643 1060.99,97.466 1043.51,97.466C1026.1,97.466 1014.35,110.643 1014.35,130.695C1014.35,150.461 1026.1,163.695 1043.51,163.695ZM1043.51,154.471C1030.74,154.471 1024.84,143.299 1024.84,130.695C1024.84,117.919 1030.74,106.69 1043.51,106.69C1056.46,106.69 1062.36,117.977 1062.36,130.695C1062.36,143.299 1056.46,154.471 1043.51,154.471Z" style="fill:white;fill-rule:nonzero;"/>
            <path d="M1087.8,162.32L1098.11,162.32L1098.11,122.216C1098.11,113.565 1104.87,107.32 1114.1,107.32C1116.85,107.32 1119.65,107.779 1120.29,107.893L1120.29,97.523C1119.08,97.466 1116.56,97.352 1115.07,97.352C1107.45,97.352 1100.81,101.648 1098.46,108.122L1097.77,108.122L1097.77,98.268L1087.8,98.268L1087.8,162.32Z" style="fill:white;fill-rule:nonzero;"/>
        </g>
        <g id="Icon" transform="matrix(0.91791,0,0,0.91791,14.4925,14.452)">
            <g id="Background" transform="matrix(0.999753,0,0,1.09446,0.238734,-0.570927)">
                <path d="M273.829,48.153L273.829,208.805C273.829,232.046 253.173,250.914 227.731,250.914L51.86,250.914C26.418,250.914 5.763,232.046 5.763,208.805L5.763,48.153C5.763,24.912 26.418,6.044 51.86,6.044L227.731,6.044C253.173,6.044 273.829,24.912 273.829,48.153Z" style="fill:white;"/>
            </g>
            <g id="Logo" transform="matrix(0.1,0,0,-0.1,-0.333632,268.144)">
                <path d="M885,1866C1005,1893 1273,1861 1320,1814C1339,1796 1327,1784 1201,1699C1109,1637 1105,1636 1034,1633C925,1629 858,1600 784,1526C709,1451 685,1391 686,1280C686,1221 691,1193 712,1148C746,1076 815,1006 888,972C939,948 957,945 1052,945C1121,945 1163,949 1171,957C1180,966 1169,1009 1125,1141C1073,1299 1068,1320 1072,1381C1078,1456 1111,1528 1164,1578C1197,1610 1339,1710 1351,1710C1366,1710 1450,1473 1450,1431C1450,1418 1431,1405 1385,1385C1316,1356 1300,1339 1300,1294C1300,1279 1334,1163 1376,1036L1452,806L1428,785C1414,773 1358,749 1304,730C1220,702 1186,697 1083,692C946,687 868,698 776,737C608,807 490,936 437,1105C409,1196 407,1366 434,1455C496,1666 663,1817 885,1866ZM1635,1866C1680,1875 1741,1878 1809,1875C2041,1864 2222,1754 2323,1563C2375,1464 2393,1384 2393,1265C2393,1094 2337,966 2214,850C2065,711 1863,659 1665,710C1527,745 1527,766 1660,866C1751,935 1758,938 1821,942C1936,951 2042,1026 2097,1138C2121,1187 2125,1208 2125,1280C2125,1351 2121,1374 2099,1421C2063,1498 2008,1556 1936,1593C1880,1622 1867,1625 1778,1625C1722,1625 1677,1620 1670,1614C1663,1607 1677,1555 1719,1432C1791,1227 1798,1184 1776,1105C1755,1036 1700,973 1611,918C1563,888 1550,883 1541,894C1526,911 1450,1138 1450,1163C1450,1175 1463,1186 1488,1196C1586,1235 1601,1244 1607,1268C1611,1284 1586,1370 1530,1535C1485,1669 1450,1786 1452,1796C1456,1816 1532,1845 1635,1866Z" style="fill:rgb(0,130,201);"/>
            </g>
        </g>
    </g>
</svg>
